<?xml version="1.0" standalone="no"?>
<!DOCTYPE svg PUBLIC "-//W3C//DTD SVG 20010904//EN"
 "http://www.w3.org/TR/2001/REC-SVG-20010904/DTD/svg10.dtd">
<svg version="1.0" xmlns="http://www.w3.org/2000/svg"
 width="128.000000pt" height="128.000000pt" viewBox="0 0 128.000000 128.000000"
 preserveAspectRatio="xMidYMid meet">

<g transform="translate(0.000000,128.000000) scale(0.100000,-0.100000)"
fill="#000000" stroke="none">
<path d="M357 1006 c-66 -24 -101 -62 -148 -157 -31 -65 -33 -67 -77 -72 -95
-11 -132 -67 -132 -203 0 -78 3 -96 23 -125 27 -41 79 -69 127 -69 29 0 38 -6
51 -33 52 -105 207 -112 268 -11 l26 43 145 1 145 0 23 -41 c31 -54 95 -84
159 -74 33 5 54 16 84 46 21 21 39 46 39 54 0 11 11 15 38 15 84 0 152 66 152
148 0 128 -89 231 -214 248 -42 6 -44 8 -77 76 -39 81 -99 142 -155 157 -58
16 -430 13 -477 -3z m203 -146 l0 -80 -150 0 -150 0 30 60 c43 84 71 100 183
100 l87 0 0 -80z m287 60 c20 -12 44 -42 63 -80 l30 -60 -150 0 -150 0 0 80 0
80 88 0 c69 0 94 -4 119 -20z m269 -236 c19 -9 41 -26 49 -37 13 -18 13 -23 0
-37 -24 -26 -19 -59 10 -66 18 -4 25 -13 25 -29 0 -34 -26 -55 -68 -55 -32 0
-39 5 -57 38 -55 103 -214 102 -271 -3 l-19 -35 -145 0 -145 0 -19 35 c-57
105 -216 106 -271 3 -18 -33 -25 -38 -57 -38 -58 0 -68 18 -68 120 0 67 4 92
16 104 14 14 73 16 501 16 428 0 489 -2 519 -16z m-721 -209 c50 -49 17 -135
-53 -135 -50 0 -82 32 -82 81 0 71 85 105 135 54z m599 4 c57 -45 21 -139 -55
-139 -71 0 -105 85 -54 135 30 31 73 32 109 4z"/>
<path d="M596 604 c-9 -8 -16 -19 -16 -24 0 -18 33 -40 60 -40 27 0 60 22 60
40 0 18 -33 40 -60 40 -16 0 -36 -7 -44 -16z"/>
</g>
</svg>
