<?xml version="1.0" standalone="no"?>
<!DOCTYPE svg PUBLIC "-//W3C//DTD SVG 20010904//EN"
 "http://www.w3.org/TR/2001/REC-SVG-20010904/DTD/svg10.dtd">
<svg version="1.0" xmlns="http://www.w3.org/2000/svg"
 width="294.000000pt" height="255.000000pt" viewBox="0 0 294.000000 255.000000"
 preserveAspectRatio="xMidYMid meet">

<g transform="translate(0.000000,255.000000) scale(0.100000,-0.100000)"
fill="#000000" stroke="none">
<path d="M1220 2119 c-30 -5 -59 -14 -64 -19 -6 -6 -18 -10 -28 -10 -33 0
-191 -81 -263 -135 -210 -159 -353 -396 -372 -621 -9 -108 -23 -104 348 -104
295 0 307 1 333 21 24 19 26 26 26 95 l0 74 210 0 210 0 0 -215 0 -215 -210 0
-210 0 0 74 c0 69 -2 76 -26 95 -23 18 -41 21 -120 21 -81 0 -97 -3 -114 -20
-25 -25 -25 -55 0 -80 15 -15 33 -20 74 -20 l53 0 6 -67 c5 -54 12 -72 34 -95
l27 -28 276 0 276 0 32 33 32 33 0 270 0 270 -33 32 -33 32 -275 0 -275 0 -27
-28 c-22 -23 -29 -41 -34 -95 l-6 -67 -223 0 -223 0 5 33 c8 44 45 148 61 172
7 11 13 25 13 33 0 7 15 33 33 59 78 111 196 218 288 263 24 12 52 26 61 30
66 35 237 74 328 74 231 2 482 -116 624 -292 144 -178 202 -382 176 -621 -6
-58 -15 -110 -19 -116 -4 -5 -13 -30 -20 -54 -19 -64 -77 -167 -137 -243 -141
-176 -387 -291 -624 -292 -90 0 -288 45 -325 74 -5 4 -21 11 -35 15 -35 11
-121 69 -180 122 -118 106 -216 275 -240 411 l-7 42 42 0 c48 0 95 30 95 60 0
10 -12 28 -26 39 -22 18 -41 21 -113 21 -64 0 -93 -4 -110 -17 -22 -15 -23
-20 -18 -87 19 -218 166 -466 366 -616 70 -53 237 -140 268 -140 11 0 23 -4
29 -10 38 -38 413 -39 519 0 180 64 281 125 395 240 119 119 190 238 246 415
16 50 19 91 19 240 0 188 -5 221 -57 345 -86 209 -266 403 -453 489 -27 12
-59 27 -70 32 -91 41 -153 52 -315 55 -91 1 -190 -2 -220 -7z"/>
<path d="M1376 1954 c-32 -33 -33 -44 -3 -72 31 -29 61 -28 86 4 27 34 26 40
-5 69 -34 32 -45 31 -78 -1z"/>
<path d="M1502 1935 c-16 -21 -19 -32 -12 -46 15 -26 49 -48 95 -60 61 -15
132 -48 209 -97 63 -41 70 -43 93 -31 38 20 49 53 30 82 -18 27 -100 84 -167
115 -103 47 -124 54 -174 59 -48 5 -54 3 -74 -22z"/>
<path d="M806 1159 c-33 -26 -31 -55 5 -82 24 -17 30 -18 55 -6 39 19 46 70
12 93 -30 21 -40 20 -72 -5z"/>
</g>
</svg>
