<?xml version="1.0" standalone="no"?>
<!DOCTYPE svg PUBLIC "-//W3C//DTD SVG 20010904//EN"
 "http://www.w3.org/TR/2001/REC-SVG-20010904/DTD/svg10.dtd">
<svg version="1.0" xmlns="http://www.w3.org/2000/svg"
 width="294.000000pt" height="255.000000pt" viewBox="0 0 294.000000 255.000000"
 preserveAspectRatio="xMidYMid meet">

<g transform="translate(0.000000,255.000000) scale(0.100000,-0.100000)"
fill="#000000" stroke="none">
<path d="M1060 2408 c-177 -16 -306 -63 -382 -140 -47 -47 -135 -173 -217
-309 l-51 -87 -56 -4 c-63 -5 -101 -29 -127 -79 -16 -31 -17 -65 -15 -389 3
-348 3 -356 27 -415 18 -45 41 -77 92 -127 l69 -66 0 -99 c0 -86 3 -106 26
-151 101 -203 392 -207 497 -7 15 29 22 65 25 128 l4 87 174 0 174 0 0 95 0
94 -388 3 -388 3 -42 28 c-68 44 -82 85 -82 230 l0 123 133 17 c301 39 427 48
712 54 242 5 302 8 308 20 13 21 187 133 208 133 10 0 20 4 23 9 8 12 -178 21
-467 21 -271 0 -430 -9 -702 -40 -88 -10 -162 -16 -164 -14 -9 8 155 318 227
430 97 149 144 201 202 226 74 32 228 49 435 49 306 0 452 -26 523 -93 53 -51
197 -275 274 -426 l69 -137 67 -28 c37 -16 89 -37 115 -47 27 -10 55 -24 63
-31 23 -19 20 274 -4 320 -25 50 -63 74 -126 79 l-56 4 -51 87 c-82 136 -170
262 -217 309 -48 49 -136 94 -227 116 -133 33 -464 45 -685 24z m-290 -1710
c0 -96 -58 -148 -131 -118 -39 17 -59 57 -59 120 l0 50 95 0 95 0 0 -52z"/>
<path d="M1890 1525 c-176 -38 -351 -175 -429 -337 -94 -194 -94 -382 0 -576
101 -210 331 -352 569 -352 237 0 461 139 568 350 99 198 94 423 -15 610 -139
238 -421 363 -693 305z m255 -160 c238 -62 393 -291 358 -531 -30 -212 -196
-377 -409 -407 -329 -48 -612 266 -529 586 67 258 329 417 580 352z"/>
<path d="M1980 1142 c-27 -28 -30 -36 -30 -96 l0 -66 -66 0 c-59 0 -68 -3 -95
-29 -37 -37 -37 -65 0 -102 27 -26 36 -29 95 -29 l66 0 0 -64 c0 -80 26 -119
80 -119 54 0 80 39 80 119 l0 64 64 0 c80 0 119 26 119 80 0 54 -39 80 -119
80 l-64 0 0 64 c0 53 -4 69 -22 90 -37 41 -72 43 -108 8z"/>
<path d="M628 1205 c-32 -18 -52 -72 -39 -106 26 -69 104 -85 152 -31 16 18
29 41 29 52 0 33 -23 71 -51 86 -35 17 -57 17 -91 -1z"/>
</g>
</svg>
